<?xml version="1.0" standalone="no"?>
<!DOCTYPE svg PUBLIC "-//W3C//DTD SVG 20010904//EN"
 "http://www.w3.org/TR/2001/REC-SVG-20010904/DTD/svg10.dtd">
<svg version="1.0" xmlns="http://www.w3.org/2000/svg"
 width="900.000000pt" height="531.000000pt" viewBox="0 0 900.000000 531.000000"
 preserveAspectRatio="xMidYMid meet">
<metadata>
Created by potrace 1.10, written by Peter Selinger 2001-2011
</metadata>
<g transform="translate(0.000000,531.000000) scale(0.100000,-0.100000)"
fill="#000000" stroke="none">
<path d="M4325 4751 c-336 -42 -659 -275 -807 -583 -35 -73 -57 -132 -68 -183
-5 -22 -13 -52 -18 -66 -16 -41 -24 -266 -13 -359 34 -295 170 -541 391 -709
82 -63 174 -121 191 -121 6 0 20 -5 32 -12 104 -58 259 -87 462 -87 137 1 204
8 295 32 50 13 72 21 135 48 11 5 31 13 45 19 14 6 34 16 45 23 11 7 42 25 69
41 58 34 88 59 176 146 107 106 140 152 207 290 35 73 45 102 75 210 28 102
31 414 4 500 -9 30 -24 78 -32 105 -9 28 -22 64 -29 80 -28 65 -50 110 -56
115 -3 3 -19 28 -35 55 -38 67 -203 233 -284 287 -99 66 -219 120 -305 138
-22 5 -53 14 -69 20 -36 13 -328 21 -411 11z m295 -321 c19 -5 51 -13 70 -18
46 -12 144 -58 196 -94 58 -39 178 -169 204 -221 11 -23 25 -49 29 -57 19 -32
40 -88 57 -145 26 -86 26 -335 0 -420 -45 -146 -115 -257 -231 -363 -59 -54
-192 -132 -227 -132 -7 0 -31 -7 -53 -15 -27 -9 -83 -14 -171 -15 -134 0 -180
9 -288 55 -152 65 -303 220 -366 375 -12 30 -26 66 -32 80 -5 14 -16 72 -24
130 -22 160 3 315 73 460 80 166 260 320 423 362 19 5 49 13 65 18 41 11 232
12 275 0z"/>
<path d="M4337 3848 c-81 -79 -147 -148 -147 -155 0 -12 288 -303 300 -303 7
0 279 272 291 292 6 9 -36 57 -139 161 -81 81 -149 147 -153 147 -3 0 -72 -64
-152 -142z"/>
<path d="M875 2221 c-122 -36 -211 -102 -278 -205 -59 -90 -72 -138 -71 -261
1 -107 2 -112 39 -188 38 -76 120 -171 176 -202 147 -83 292 -96 434 -37 81
33 188 130 232 209 39 69 53 130 53 228 0 142 -35 229 -129 326 -125 127 -299
176 -456 130z m265 -58 c201 -74 316 -287 266 -493 -29 -117 -90 -205 -183
-263 -168 -106 -381 -84 -522 52 -107 102 -153 256 -120 399 37 160 178 299
329 323 63 10 177 1 230 -18z"/>
<path d="M900 2132 c-36 -10 -80 -27 -99 -36 -52 -28 -124 -107 -156 -172 -26
-53 -29 -70 -29 -159 0 -93 2 -105 32 -163 59 -117 150 -186 281 -212 175 -36
354 69 424 248 25 63 23 196 -4 264 -44 111 -119 184 -226 219 -86 29 -148 32
-223 11z m233 -67 c139 -66 214 -211 186 -359 -17 -84 -42 -128 -108 -187 -74
-67 -116 -83 -221 -84 -74 0 -92 4 -140 28 -67 35 -91 57 -134 122 -110 167
-52 381 129 474 53 28 69 31 147 31 73 0 96 -4 141 -25z"/>
<path d="M903 2042 c-66 -22 -133 -77 -169 -139 -24 -43 -27 -58 -27 -138 -1
-77 3 -96 23 -130 97 -166 270 -211 428 -111 111 70 155 234 98 360 -37 82
-91 129 -180 159 -61 21 -106 21 -173 -1z m206 -66 c52 -33 99 -92 112 -141 6
-22 9 -68 5 -103 -4 -51 -12 -71 -38 -105 -39 -51 -60 -67 -113 -89 -85 -36
-182 -12 -255 63 -110 112 -88 284 49 370 40 25 55 29 124 29 65 0 84 -4 116
-24z"/>
<path d="M1437 2233 c-11 -10 -8 -50 7 -90 7 -21 21 -63 30 -93 9 -30 30 -98
46 -150 39 -124 54 -172 75 -245 10 -33 23 -76 30 -95 7 -19 20 -62 30 -95 10
-33 27 -86 38 -117 19 -56 21 -58 56 -58 20 0 41 4 47 8 6 4 35 63 64 132 63
151 76 180 95 223 24 52 28 90 11 112 -15 20 -15 20 -21 0 -3 -11 -12 -33 -19
-50 -8 -16 -22 -50 -31 -75 -10 -25 -31 -73 -47 -108 -15 -34 -28 -68 -28 -75
0 -7 -6 -21 -14 -32 -7 -11 -16 -32 -20 -47 -7 -29 -43 -40 -50 -15 -14 55
-40 138 -52 165 -8 18 -14 41 -14 52 0 11 -6 34 -14 52 -7 18 -21 58 -30 88
-8 30 -29 98 -46 150 -16 52 -37 120 -46 150 -9 30 -23 76 -32 102 -9 26 -12
51 -8 55 11 11 39 -11 47 -38 4 -13 21 -71 39 -129 18 -58 39 -127 47 -155 9
-27 21 -68 28 -90 7 -22 20 -67 30 -100 10 -33 24 -76 31 -95 7 -19 16 -49 19
-67 8 -40 32 -63 46 -42 12 20 11 43 -5 81 -7 18 -21 60 -31 93 -9 33 -23 78
-30 100 -7 22 -20 67 -30 100 -10 33 -23 76 -30 95 -7 19 -20 62 -30 95 -9 33
-23 78 -31 100 -8 23 -14 48 -14 58 0 33 -37 57 -88 57 -27 0 -52 -3 -55 -7z"/>
<path d="M1614 2229 c-6 -10 9 -68 41 -159 7 -19 20 -62 30 -95 9 -33 23 -78
30 -100 6 -22 20 -67 30 -100 9 -33 23 -78 31 -100 8 -23 14 -47 14 -55 0 -8
4 -22 10 -30 7 -12 12 -12 29 4 12 11 21 25 21 32 0 7 7 30 16 51 9 21 23 52
29 68 7 17 20 46 28 65 9 19 18 43 21 53 3 9 9 17 13 17 13 0 27 -28 103 -205
40 -93 76 -176 80 -184 8 -16 28 -61 57 -128 28 -65 30 -68 52 -71 16 -3 21 2
21 20 0 13 -4 28 -9 33 -5 6 -28 55 -51 109 -23 54 -45 106 -49 115 -8 17 -31
69 -55 124 -17 38 -37 85 -65 147 -11 25 -31 71 -45 103 -14 32 -31 57 -37 55
-6 -2 -24 -35 -40 -73 -17 -39 -38 -88 -49 -110 -10 -22 -21 -50 -25 -63 -11
-38 -38 -23 -52 28 -6 25 -16 59 -21 75 -6 17 -17 53 -25 80 -66 227 -87 289
-100 297 -17 11 -25 10 -33 -3z"/>
<path d="M2366 2228 c-2 -7 -10 -33 -19 -58 -8 -25 -22 -72 -32 -105 -10 -33
-24 -78 -32 -101 -16 -44 -14 -120 2 -117 5 1 18 28 29 60 10 32 25 74 31 93
10 29 36 113 51 168 2 8 25 12 70 12 l66 0 -6 -27 c-4 -16 -11 -44 -15 -63 -5
-19 -13 -46 -18 -60 -6 -14 -18 -52 -28 -85 -17 -58 -35 -118 -60 -200 -7 -22
-21 -67 -30 -100 -10 -33 -24 -75 -31 -93 -8 -18 -14 -44 -14 -57 0 -14 -6
-25 -13 -25 -12 0 -26 24 -59 100 -21 50 -49 113 -58 131 -4 8 -54 123 -110
255 -95 221 -112 253 -133 254 -6 0 -41 -70 -93 -190 -9 -19 -22 -48 -30 -63
-24 -48 -28 -101 -10 -116 13 -11 17 -10 22 5 3 11 29 74 58 142 l51 123 22
-26 c13 -14 23 -34 23 -44 0 -9 4 -21 9 -26 5 -6 62 -134 126 -285 65 -150
121 -281 125 -290 5 -8 17 -37 28 -63 10 -27 23 -48 28 -49 5 0 17 27 28 59
10 32 25 74 31 93 7 19 20 62 30 95 9 33 23 78 30 100 6 22 20 67 30 100 10
33 23 78 30 100 7 22 21 67 30 100 10 33 23 76 30 95 32 91 47 149 41 159 -10
16 -225 15 -230 -1z"/>
<path d="M2935 2224 c-173 -50 -292 -166 -346 -338 -76 -243 97 -524 356 -582
76 -17 136 -17 205 0 102 26 144 50 225 131 87 87 115 140 136 255 27 153 -27
307 -148 421 -111 106 -291 153 -428 113z m187 -43 c79 -13 163 -57 223 -116
174 -170 165 -464 -19 -621 -146 -125 -359 -139 -513 -33 -56 39 -114 99 -134
141 -47 94 -51 111 -52 209 0 95 11 144 44 199 5 8 13 25 19 37 16 39 105 117
165 147 86 42 167 53 267 37z"/>
<path d="M2950 2131 c-36 -10 -80 -27 -99 -36 -37 -20 -131 -111 -131 -128 0
-6 -6 -18 -13 -26 -8 -9 -22 -42 -32 -75 -25 -83 -17 -172 23 -256 36 -75 50
-92 112 -140 64 -50 96 -65 169 -80 116 -24 241 15 334 105 149 145 151 394 3
540 -100 97 -236 134 -366 96z m240 -70 c212 -105 253 -366 85 -536 -66 -67
-148 -98 -242 -92 -135 8 -225 71 -296 207 -14 27 -19 57 -19 127 0 82 3 97
28 143 33 60 109 132 168 159 30 14 65 20 129 20 78 1 95 -2 147 -28z"/>
<path d="M2951 2041 c-94 -35 -143 -83 -180 -180 -27 -66 -26 -125 1 -195 21
-56 89 -146 111 -146 6 0 18 -6 26 -13 22 -19 91 -37 138 -37 101 0 205 63
255 154 19 35 22 57 23 142 0 94 -2 103 -29 144 -41 62 -82 99 -135 122 -68
29 -145 33 -210 9z m206 -61 c70 -36 131 -134 132 -210 2 -94 -73 -200 -165
-233 -61 -21 -102 -22 -156 0 -110 43 -160 115 -160 231 0 66 3 78 32 121 18
26 53 62 78 79 42 29 53 32 124 32 58 0 87 -5 115 -20z"/>
<path d="M4482 2224 c-12 -8 -22 -19 -22 -25 0 -8 -14 -39 -80 -184 -10 -22
-30 -67 -45 -100 -14 -33 -32 -73 -40 -90 -16 -36 -59 -133 -87 -195 -11 -25
-28 -63 -38 -85 -10 -22 -30 -67 -45 -100 -14 -33 -33 -74 -42 -92 -28 -57
-18 -63 110 -63 126 0 127 1 160 73 l17 37 123 0 c68 0 127 3 130 7 4 3 0 15
-10 25 -14 16 -33 18 -139 18 -120 0 -123 0 -143 -26 -12 -15 -21 -34 -21 -43
0 -31 -23 -41 -91 -41 -71 0 -86 8 -70 37 5 10 17 36 26 58 10 22 21 47 25 56
5 8 34 76 65 149 31 73 61 141 65 149 4 9 15 32 23 51 9 19 30 65 46 103 17
37 31 69 31 72 0 3 13 33 29 67 16 35 31 71 34 81 4 9 15 17 26 17 16 0 29
-18 56 -75 19 -42 35 -78 35 -80 0 -3 14 -34 30 -70 17 -36 44 -94 60 -130 17
-36 30 -67 30 -70 0 -3 14 -35 31 -72 35 -80 54 -121 73 -165 8 -18 28 -62 45
-97 17 -35 28 -68 25 -72 -3 -5 -34 -9 -69 -9 l-63 0 -22 48 c-12 26 -32 67
-44 92 l-22 45 -206 3 c-157 2 -208 -1 -215 -10 -6 -7 -20 -39 -33 -71 -17
-41 -21 -60 -13 -68 16 -16 51 6 59 39 4 15 14 37 22 50 14 21 19 22 174 22
162 0 197 -7 199 -38 1 -9 18 -48 38 -87 l36 -70 113 -3 112 -3 0 26 c0 14
-14 55 -31 92 -38 82 -55 121 -134 298 -7 17 -27 59 -43 95 -16 36 -39 85 -50
110 -58 128 -72 160 -101 223 -17 37 -31 71 -31 77 0 12 -34 30 -57 30 -10 0
-29 -7 -41 -16z"/>
<path d="M5082 2228 c-9 -9 -12 -122 -12 -459 0 -246 3 -454 6 -463 5 -13 25
-16 114 -16 103 0 108 1 114 23 3 12 6 99 6 193 l0 171 77 99 c42 54 80 101
83 104 7 5 116 146 164 211 21 27 27 42 20 49 -19 19 -42 -1 -126 -107 -46
-58 -88 -111 -93 -117 -6 -6 -33 -40 -59 -76 -27 -36 -63 -80 -80 -98 l-31
-33 -5 -182 -5 -182 -65 0 -65 0 -5 444 c-3 294 -9 446 -15 448 -6 2 -16 -2
-23 -9z"/>
<path d="M5176 2224 c-13 -13 -16 -46 -16 -205 0 -104 4 -189 8 -189 5 0 16 6
25 13 14 10 17 36 19 172 3 152 4 160 23 160 18 0 20 -8 23 -100 3 -125 7
-138 33 -106 16 19 19 39 19 121 0 54 -4 110 -10 124 -8 23 -15 26 -59 26 -32
0 -55 -6 -65 -16z"/>
<path d="M5543 2203 c-19 -21 -82 -99 -139 -173 -57 -74 -122 -157 -144 -185
-22 -27 -54 -70 -70 -94 l-30 -44 0 -157 c0 -126 3 -160 15 -170 30 -25 35 0
35 159 l0 158 32 44 c17 24 34 46 38 49 4 3 45 55 91 115 46 61 113 147 149
193 l65 82 76 0 c42 0 78 -3 82 -6 3 -4 -22 -42 -56 -86 -34 -44 -84 -107
-110 -141 -27 -34 -56 -71 -65 -82 -60 -71 -122 -155 -122 -164 0 -6 54 -84
121 -172 85 -113 125 -159 137 -157 9 2 16 11 16 19 -1 9 -49 80 -108 157 -58
78 -106 148 -106 155 0 8 7 20 16 28 8 7 59 69 111 138 53 69 99 128 103 131
3 3 35 43 70 90 35 47 67 87 70 90 13 10 29 47 23 54 -3 3 -65 6 -136 6 l-129
0 -35 -37z"/>
<path d="M6142 2220 c-295 -87 -433 -399 -298 -671 41 -81 145 -179 231 -218
150 -67 326 -48 461 50 158 115 237 319 189 490 -50 178 -170 300 -345 350
-81 23 -156 23 -238 -1z m268 -57 c186 -68 295 -246 274 -448 -23 -213 -204
-375 -420 -375 -115 0 -215 42 -299 125 -138 138 -163 327 -69 514 44 87 182
186 284 202 63 10 177 1 230 -18z"/>
<path d="M6170 2131 c-88 -25 -126 -46 -180 -101 -53 -52 -76 -92 -96 -168
-24 -91 -13 -194 31 -280 24 -47 111 -130 165 -156 76 -38 158 -51 237 -36 37
7 85 22 106 33 54 28 141 110 165 155 100 192 30 432 -153 524 -37 19 -152 48
-186 47 -13 0 -53 -8 -89 -18z m223 -61 c66 -30 140 -101 171 -165 22 -46 26
-70 26 -139 0 -91 -12 -130 -64 -202 -64 -88 -146 -128 -266 -129 -74 0 -92 4
-140 28 -53 27 -129 92 -130 111 0 5 -6 17 -13 25 -25 30 -47 107 -47 166 0
70 22 135 64 190 47 61 63 75 124 106 49 24 69 28 143 29 65 0 98 -5 132 -20z"/>
<path d="M6174 2042 c-219 -72 -273 -347 -98 -500 183 -162 474 -27 474 219 0
92 -20 139 -85 204 -90 90 -180 113 -291 77z m217 -74 c80 -58 109 -111 109
-203 0 -109 -58 -192 -158 -228 -62 -22 -100 -21 -164 4 -65 25 -102 59 -134
121 -56 111 -9 254 106 317 26 15 55 20 116 20 76 1 84 -1 125 -31z"/>
<path d="M6807 2233 c-4 -3 -7 -217 -7 -475 l0 -468 110 0 c98 0 110 2 120 19
6 12 10 94 10 196 l0 176 62 82 c34 45 65 84 68 87 3 3 46 57 95 120 49 63 97
124 107 134 22 24 23 35 2 43 -19 7 -51 -22 -125 -117 -32 -41 -86 -109 -119
-150 -33 -41 -80 -101 -105 -133 l-45 -59 0 -174 0 -174 -59 0 c-33 0 -63 4
-66 10 -3 5 -6 199 -5 430 0 402 -3 460 -29 460 -4 0 -11 -3 -14 -7z"/>
<path d="M6897 2233 c-11 -10 -8 -401 2 -408 24 -14 36 45 41 195 4 137 7 155
23 158 15 3 17 -7 17 -112 0 -63 4 -117 10 -121 5 -3 16 5 25 19 22 33 25 254
4 267 -16 10 -113 12 -122 2z"/>
<path d="M7264 2204 c-16 -20 -63 -80 -104 -134 -41 -53 -119 -154 -172 -223
l-98 -125 0 -171 c0 -93 4 -172 9 -175 5 -4 16 -3 25 0 14 5 16 29 16 168 l0
163 43 55 c141 184 247 320 286 366 l45 52 72 0 c40 0 75 -4 78 -9 5 -8 -27
-52 -261 -348 -46 -58 -83 -113 -83 -122 0 -14 66 -108 212 -303 21 -28 51
-37 63 -18 3 5 -44 75 -105 156 -60 81 -110 155 -110 165 0 14 37 68 60 89 4
3 35 43 70 90 68 90 70 92 122 156 63 77 138 181 138 193 0 8 -42 11 -138 11
l-138 0 -30 -36z"/>
<path d="M7875 2224 c-133 -39 -255 -135 -306 -242 -44 -91 -49 -115 -49 -216
0 -147 35 -234 135 -331 67 -66 160 -117 243 -134 208 -42 417 66 517 267 37
75 38 80 39 187 1 123 -12 171 -72 262 -41 64 -131 148 -181 169 -127 54 -230
66 -326 38z m290 -75 c152 -72 249 -221 248 -384 -1 -233 -192 -425 -423 -425
-260 0 -460 232 -419 485 15 94 51 168 115 235 61 64 142 109 219 121 86 13
192 0 260 -32z"/>
<path d="M7890 2131 c-36 -10 -78 -25 -94 -34 -54 -29 -125 -108 -156 -173
-27 -57 -30 -74 -30 -158 0 -100 19 -163 73 -234 52 -69 145 -124 240 -142
111 -20 235 15 323 92 81 71 115 157 115 287 0 81 -4 106 -25 153 -75 170
-267 260 -446 209z m228 -62 c69 -31 105 -62 144 -121 76 -115 76 -250 2 -363
-43 -66 -67 -87 -134 -121 -111 -56 -250 -40 -347 41 -164 137 -170 372 -14
506 73 63 112 77 214 78 69 1 98 -3 135 -20z"/>
<path d="M7893 2041 c-129 -48 -193 -140 -193 -278 0 -137 69 -231 202 -278
129 -45 279 19 344 147 30 59 34 188 7 246 -64 142 -224 214 -360 163z m213
-67 c138 -81 164 -262 54 -373 -103 -104 -240 -105 -346 -2 -89 86 -94 219
-12 315 57 66 97 85 186 86 62 0 81 -4 118 -26z"/>
<path d="M2035 2200 c-3 -5 0 -22 8 -37 13 -26 22 -47 61 -138 9 -20 23 -52
32 -73 9 -20 22 -50 29 -67 15 -36 34 -78 73 -165 16 -36 32 -75 36 -88 4 -12
16 -27 26 -32 17 -9 20 -6 25 17 6 25 47 166 80 268 7 22 20 67 30 100 10 33
25 79 33 103 11 31 12 46 4 54 -13 13 -41 4 -46 -14 -3 -12 -8 -30 -50 -168
-64 -214 -87 -260 -102 -213 -7 23 -128 310 -159 378 -12 28 -25 58 -28 68 -7
18 -42 23 -52 7z"/>
<path d="M4506 2074 c-9 -8 -16 -20 -16 -26 0 -6 -12 -36 -26 -67 -14 -31 -34
-74 -44 -96 -10 -22 -32 -70 -49 -108 -17 -37 -31 -69 -31 -72 0 -2 -12 -30
-27 -61 -22 -46 -24 -57 -12 -65 18 -11 330 -11 348 0 12 8 12 14 -1 43 -23
49 -63 136 -89 196 -13 28 -27 52 -31 52 -12 0 -38 -31 -38 -46 0 -8 -13 -43
-30 -77 -35 -74 -38 -97 -11 -97 22 0 36 16 45 52 3 15 14 32 25 37 16 9 21 2
43 -52 14 -34 24 -65 21 -69 -2 -5 -49 -8 -104 -8 -80 0 -101 3 -105 15 -4 8
25 88 63 178 69 159 94 194 109 150 4 -10 19 -46 35 -81 16 -34 29 -64 29 -67
0 -3 14 -35 31 -72 50 -112 75 -167 128 -286 30 -67 53 -89 73 -69 7 7 5 19
-5 39 -19 35 -77 161 -77 168 0 3 -20 48 -45 101 -25 52 -45 97 -45 100 0 4
-37 86 -90 199 -16 33 -31 70 -35 83 -8 26 -18 28 -39 6z"/>
<path d="M7247 1710 c-19 -27 -33 -3 127 -215 57 -77 101 -144 97 -148 -4 -4
-41 -7 -82 -5 l-74 3 -78 105 c-123 167 -149 195 -159 176 -12 -21 9 -60 100
-181 126 -168 104 -155 259 -155 100 0 133 3 133 13 0 11 -39 66 -145 207 -71
94 -140 189 -151 206 -10 16 -11 16 -27 -6z"/>
<path d="M5510 1700 c0 -11 6 -28 14 -37 52 -64 226 -305 226 -313 0 -16 -146
-13 -162 4 -30 31 -87 108 -174 233 -20 29 -40 50 -45 47 -17 -10 -9 -63 14
-91 13 -15 37 -48 54 -73 17 -25 40 -56 52 -69 12 -13 21 -27 21 -31 0 -4 16
-23 35 -43 l36 -37 129 0 c107 0 130 3 130 15 0 13 -38 69 -135 200 -25 33
-63 86 -86 119 -51 72 -74 96 -94 96 -8 0 -15 -9 -15 -20z"/>
<path d="M4056 896 c-58 -18 -106 -78 -106 -131 0 -43 20 -70 83 -110 38 -24
50 -50 37 -75 -24 -45 -100 -3 -118 64 -10 36 -28 44 -37 16 -10 -33 4 -75 36
-106 24 -23 39 -29 75 -29 40 0 49 4 74 35 19 22 30 47 30 67 0 27 -7 37 -40
58 -22 14 -46 25 -53 25 -20 0 -47 33 -47 57 0 28 51 70 102 83 55 15 70 1 40
-40 -12 -16 -22 -34 -22 -40 0 -17 41 -2 69 25 31 30 22 68 -22 95 -36 22 -46
23 -101 6z"/>
<path d="M4644 896 c-31 -14 -94 -84 -94 -105 0 -7 -7 -23 -16 -37 -12 -17
-17 -49 -18 -102 -1 -69 2 -80 23 -101 18 -18 36 -24 67 -25 36 -1 49 5 79 34
42 41 69 95 86 172 12 59 36 90 76 102 29 9 37 -8 20 -41 -8 -16 -21 -46 -30
-68 -8 -22 -20 -56 -27 -75 -7 -19 -14 -53 -14 -75 -2 -73 43 -49 56 30 2 15
14 22 43 26 58 9 87 23 124 60 59 59 66 111 21 162 -43 49 -99 63 -174 43 -32
-8 -66 -22 -77 -32 -18 -16 -20 -16 -42 3 -20 18 -61 44 -69 43 -2 -1 -17 -7
-34 -14z m84 -85 c5 -69 -44 -188 -96 -235 -15 -13 -29 -16 -47 -12 -22 6 -25
12 -25 49 0 113 79 252 138 245 24 -3 27 -7 30 -47z m281 30 c32 -24 23 -56
-30 -109 -78 -79 -115 -67 -69 23 16 32 30 66 30 75 0 35 31 40 69 11z"/>
<path d="M4333 868 c-19 -36 -39 -86 -54 -134 -12 -40 -36 -61 -74 -66 -22 -2
-31 -9 -33 -25 -3 -17 2 -22 25 -25 25 -3 28 -7 28 -43 0 -34 4 -40 22 -43 17
-3 24 3 28 25 13 58 23 72 66 83 51 14 62 5 47 -42 -6 -20 -8 -43 -5 -52 9
-23 47 -21 47 3 0 10 12 49 26 87 14 38 29 81 34 95 4 14 12 34 18 45 54 105
52 101 37 114 -25 21 -46 7 -66 -45 -11 -27 -27 -63 -35 -78 -8 -16 -14 -35
-14 -42 0 -25 -31 -45 -71 -45 -21 0 -39 4 -39 9 0 12 34 93 61 145 23 44 19
66 -10 66 -13 0 -27 -12 -38 -32z"/>
</g>
</svg>
